<?xml version="1.0" standalone="no"?>
<!DOCTYPE svg PUBLIC "-//W3C//DTD SVG 20010904//EN"
 "http://www.w3.org/TR/2001/REC-SVG-20010904/DTD/svg10.dtd">
<svg version="1.0" xmlns="http://www.w3.org/2000/svg"
 width="512.000000pt" height="512.000000pt" viewBox="0 0 512.000000 512.000000"
 preserveAspectRatio="xMidYMid meet">

<g transform="translate(0.000000,512.000000) scale(0.100000,-0.100000)"
fill="#000000" stroke="none">
<path d="M898 5110 c-59 -10 -142 -55 -175 -95 -15 -16 -38 -55 -52 -85 l-26
-55 0 -2315 0 -2315 26 -55 c37 -80 72 -115 147 -152 l67 -33 1675 0 1675 0
67 33 c75 37 110 72 147 152 l26 55 2 1900 3 1900 -641 538 -640 537 -1127 -1
c-620 -1 -1148 -5 -1174 -9z m972 -2491 c61 -17 180 -82 180 -98 0 -12 -121
-151 -132 -151 -5 0 -23 9 -38 20 -72 51 -191 65 -266 31 -51 -23 -109 -91
-129 -151 -35 -105 -37 -308 -4 -408 19 -59 56 -110 101 -139 37 -25 50 -28
127 -28 89 0 130 13 207 64 l31 21 61 -79 62 -80 -38 -28 c-106 -83 -205 -115
-352 -114 -249 1 -420 133 -487 376 -23 84 -28 258 -9 355 22 118 79 231 150
299 64 60 175 116 256 130 73 13 200 4 280 -20z m835 16 c84 -15 199 -66 248
-110 l29 -25 -33 -38 c-17 -20 -47 -54 -66 -75 l-34 -38 -26 21 c-74 58 -225
88 -307 60 -66 -22 -95 -88 -60 -138 20 -29 73 -55 197 -98 250 -87 337 -181
337 -364 0 -90 -23 -150 -80 -213 -89 -98 -197 -138 -371 -138 -61 0 -134 6
-172 15 -81 19 -185 68 -234 111 l-37 32 23 28 c12 16 43 51 68 78 l45 48 53
-37 c59 -40 165 -74 233 -74 114 0 180 44 189 125 5 43 3 48 -34 83 -30 29
-67 48 -149 77 -144 50 -216 87 -271 138 -71 65 -88 106 -88 212 0 81 3 95 30
144 81 146 284 216 510 176z m960 0 c84 -15 199 -66 248 -110 l29 -25 -33 -38
c-17 -20 -47 -54 -66 -75 l-34 -38 -26 21 c-74 58 -225 88 -307 60 -66 -22
-95 -88 -60 -138 20 -29 73 -55 197 -98 250 -87 337 -181 337 -364 0 -90 -23
-150 -80 -213 -89 -98 -197 -138 -371 -138 -61 0 -134 6 -172 15 -81 19 -185
68 -234 111 l-37 32 23 28 c12 16 43 51 68 78 l45 49 45 -32 c88 -63 225 -94
321 -71 66 16 103 55 109 116 5 43 3 48 -34 83 -30 29 -67 48 -149 77 -144 50
-216 87 -271 138 -71 65 -88 106 -88 212 0 82 3 95 31 145 82 146 284 215 509
175z"/>
</g>
</svg>
