<?xml version="1.0" standalone="no"?>
<!DOCTYPE svg PUBLIC "-//W3C//DTD SVG 20010904//EN"
 "http://www.w3.org/TR/2001/REC-SVG-20010904/DTD/svg10.dtd">
<svg version="1.0" xmlns="http://www.w3.org/2000/svg"
 width="512.000000pt" height="512.000000pt" viewBox="0 0 512.000000 512.000000"
 preserveAspectRatio="xMidYMid meet">

<g transform="translate(0.000000,512.000000) scale(0.100000,-0.100000)"
fill="#000000" stroke="none">
<path d="M898 5110 c-59 -10 -142 -55 -175 -95 -15 -16 -38 -55 -52 -85 l-26
-55 0 -2315 0 -2315 26 -55 c37 -80 72 -115 147 -152 l67 -33 1675 0 1675 0
67 33 c75 37 110 72 147 152 l26 55 3 1900 2 1900 -640 538 -640 537 -1128 -1
c-620 -1 -1148 -5 -1174 -9z m2287 -2475 c84 -15 199 -66 248 -110 l29 -26
-58 -67 c-32 -37 -61 -71 -65 -76 -4 -5 -20 1 -35 13 -75 59 -225 89 -308 61
-66 -22 -95 -88 -60 -138 20 -29 72 -55 197 -98 134 -47 190 -77 248 -131 68
-63 92 -130 87 -243 -5 -134 -52 -213 -161 -275 -87 -48 -163 -66 -287 -66
-166 -1 -313 44 -407 126 l-37 32 23 28 c12 16 43 51 68 78 l46 49 31 -23
c130 -96 333 -117 409 -41 33 34 45 94 25 132 -20 36 -81 73 -188 110 -130 46
-203 84 -257 133 -63 58 -85 107 -91 200 -4 71 -2 82 27 141 37 76 83 119 167
157 101 46 218 57 349 34z m-815 -447 c0 -471 -5 -521 -57 -628 -54 -113 -189
-214 -377 -284 -155 -58 -139 -63 -176 49 -18 53 -30 97 -29 99 2 1 39 15 82
30 95 34 182 90 221 140 53 70 56 98 56 478 l0 348 -180 0 -180 0 0 100 0 100
320 0 320 0 0 -432z"/>
</g>
</svg>
