<?xml version="1.0" standalone="no"?>
<!DOCTYPE svg PUBLIC "-//W3C//DTD SVG 20010904//EN"
 "http://www.w3.org/TR/2001/REC-SVG-20010904/DTD/svg10.dtd">
<svg version="1.0" xmlns="http://www.w3.org/2000/svg"
 width="512.000000pt" height="512.000000pt" viewBox="0 0 512.000000 512.000000"
 preserveAspectRatio="xMidYMid meet">

<g transform="translate(0.000000,512.000000) scale(0.100000,-0.100000)"
fill="#288be6" stroke="none">
<path d="M2370 5113 c-379 -36 -661 -116 -980 -278 -398 -203 -765 -542 -1010
-935 -179 -286 -309 -655 -362 -1025 -17 -118 -17 -512 0 -630 42 -295 120
-553 242 -800 137 -280 272 -468 494 -691 221 -220 412 -357 681 -489 188 -92
309 -137 500 -185 196 -49 343 -70 545 -77 489 -17 968 108 1398 364 319 190
645 510 856 843 72 113 188 353 235 486 201 565 201 1163 0 1728 -47 133 -163
373 -235 486 -211 333 -537 653 -856 843 -413 246 -871 371 -1338 365 -74 0
-151 -3 -170 -5z m406 -244 c677 -66 1280 -416 1681 -977 312 -437 465 -1010
412 -1548 -51 -529 -273 -1010 -642 -1391 -173 -179 -331 -301 -537 -417 -696
-390 -1537 -394 -2240 -10 -207 113 -343 215 -526 398 -229 230 -378 447 -497
728 -343 802 -205 1723 357 2398 90 107 275 282 391 368 285 212 593 349 935
416 229 45 448 57 666 35z"/>
<path d="M2265 4067 c-36 -36 -33 -23 -58 -255 l-12 -113 -91 -38 -91 -39
-129 104 c-135 109 -171 126 -223 105 -36 -15 -366 -348 -376 -379 -15 -49 5
-87 109 -216 l104 -129 -39 -91 -38 -91 -113 -12 c-232 -25 -219 -22 -255 -58
l-33 -33 0 -262 0 -262 33 -33 c36 -36 24 -33 256 -58 l114 -12 37 -91 37 -91
-103 -129 c-104 -129 -124 -167 -109 -216 10 -31 340 -364 376 -379 52 -21 88
-4 223 105 l129 103 91 -37 91 -37 12 -114 c24 -223 23 -219 51 -250 38 -42
78 -49 302 -49 224 0 264 7 302 49 28 31 27 26 51 249 l12 113 91 39 92 38
128 -104 c135 -109 171 -126 223 -105 36 15 366 348 376 379 15 49 -5 87 -109
216 l-103 129 37 91 37 91 114 12 c232 25 220 22 256 58 l33 33 0 262 0 262
-33 33 c-36 36 -24 33 -256 58 l-114 12 -37 91 -37 91 103 129 c104 129 124
167 109 216 -10 31 -340 364 -376 379 -52 21 -88 4 -223 -105 l-128 -104 -92
38 -91 39 -12 113 c-25 232 -22 219 -58 255 l-33 33 -262 0 -262 0 -33 -33z
m416 -357 c20 -192 20 -193 163 -242 59 -20 135 -53 170 -72 68 -38 119 -46
159 -24 12 6 68 49 124 95 55 45 105 83 109 83 11 0 144 -132 144 -143 0 -5
-38 -55 -83 -110 -46 -56 -89 -112 -95 -124 -22 -40 -14 -91 24 -159 19 -35
52 -111 72 -170 49 -143 50 -143 242 -163 l150 -15 0 -106 0 -106 -150 -15
c-192 -20 -193 -20 -242 -163 -20 -59 -53 -135 -72 -170 -38 -68 -46 -119 -24
-159 6 -12 49 -68 95 -124 45 -55 83 -105 83 -109 0 -11 -132 -144 -143 -144
-5 0 -55 38 -110 83 -56 46 -112 89 -124 95 -40 22 -91 14 -159 -24 -35 -19
-111 -52 -170 -72 -143 -49 -143 -49 -163 -244 l-16 -153 -105 0 -105 0 -16
153 c-20 195 -20 195 -163 244 -59 20 -135 53 -170 72 -68 38 -119 46 -159 24
-12 -6 -68 -49 -124 -95 -55 -45 -105 -83 -109 -83 -11 0 -144 132 -144 143 0
5 38 55 83 110 46 56 89 112 95 124 22 40 14 91 -24 159 -19 35 -52 111 -72
170 -49 143 -50 143 -242 163 l-150 15 0 106 0 106 150 15 c192 20 193 20 242
163 20 59 53 135 72 170 38 68 46 119 24 159 -6 12 -49 68 -95 124 -45 55 -83
105 -83 109 0 11 132 144 143 144 5 0 55 -38 110 -83 56 -46 112 -89 124 -95
40 -22 91 -14 159 24 35 19 111 52 170 72 143 49 143 50 163 242 l15 150 106
0 106 0 15 -150z"/>
<path d="M2395 3161 c-211 -61 -385 -238 -439 -447 -21 -80 -21 -228 0 -308
55 -213 237 -395 450 -450 78 -20 219 -20 303 -1 214 51 405 242 456 456 19
83 19 225 -1 302 -56 218 -233 395 -451 451 -81 21 -240 20 -318 -3z m330
-256 c76 -37 143 -104 181 -180 26 -55 29 -69 29 -165 0 -96 -3 -110 -29 -165
-38 -76 -105 -143 -181 -181 -55 -26 -69 -29 -165 -29 -96 0 -110 3 -165 29
-76 38 -143 105 -180 180 -37 75 -46 194 -22 277 33 111 138 219 247 254 29
10 77 14 136 12 76 -2 99 -7 149 -32z"/>
</g>
</svg>
