<?xml version="1.0" standalone="no"?>
<!DOCTYPE svg PUBLIC "-//W3C//DTD SVG 20010904//EN"
 "http://www.w3.org/TR/2001/REC-SVG-20010904/DTD/svg10.dtd">
<svg version="1.0" xmlns="http://www.w3.org/2000/svg"
 width="512.000000pt" height="512.000000pt" viewBox="0 0 512.000000 512.000000"
 preserveAspectRatio="xMidYMid meet">

<g transform="translate(0.000000,512.000000) scale(0.100000,-0.100000)"
fill="#ffffff" stroke="none">
<path d="M1605 4796 c-61 -27 -77 -58 -166 -324 l-86 -257 -499 -5 c-489 -5
-500 -6 -555 -28 -156 -63 -259 -185 -289 -341 -6 -32 -10 -249 -10 -535 0
-473 0 -482 21 -516 25 -40 39 -53 92 -80 l37 -20 0 -979 c0 -624 4 -998 10
-1032 34 -180 179 -325 359 -359 74 -14 4008 -14 4082 0 180 34 325 179 359
359 6 34 10 408 10 1032 l0 979 38 19 c20 11 48 29 61 42 50 48 51 54 51 562
0 281 -4 496 -10 528 -30 156 -133 278 -289 341 -55 22 -66 23 -555 28 l-499
5 -86 257 c-90 268 -105 297 -168 324 -47 20 -1863 20 -1908 0z m1792 -421
c24 -71 46 -138 49 -147 5 -17 -42 -18 -885 -18 -490 0 -891 1 -891 3 0 3 86
261 95 285 3 10 168 12 796 10 l792 -3 44 -130z m1343 -485 c26 -13 47 -34 60
-60 19 -37 20 -58 20 -457 l0 -418 -781 -390 -781 -390 -16 25 c-60 91 -158
161 -271 194 -81 24 -741 24 -822 0 -113 -33 -211 -103 -271 -194 l-16 -25
-781 390 -781 390 0 418 c0 399 1 420 20 457 12 24 35 47 58 59 36 20 66 20
2180 21 2128 0 2143 0 2182 -20z m-3600 -1690 c425 -212 683 -347 687 -358 21
-63 67 -144 106 -188 53 -59 155 -116 235 -133 71 -15 713 -15 784 0 80 17
182 74 235 133 39 44 85 125 106 188 4 11 262 146 687 358 374 187 682 340
685 340 3 0 5 -407 5 -905 0 -888 0 -907 -20 -945 -13 -26 -34 -47 -60 -60
-39 -20 -55 -20 -2030 -20 -1975 0 -1991 0 -2030 20 -26 13 -47 34 -60 60 -20
38 -20 57 -20 945 0 498 2 905 5 905 3 0 311 -153 685 -340z m1790 -110 c45
-23 80 -80 80 -130 0 -50 -35 -107 -80 -130 -37 -19 -58 -20 -370 -20 -312 0
-333 1 -370 20 -45 23 -80 80 -80 130 0 48 35 107 78 129 35 19 58 20 370 21
314 0 335 -1 372 -20z"/>
</g>
</svg>
